<svg
	version="1.1"
	id="Layer_1"
	xmlns="http://www.w3.org/2000/svg"
	xmlns:xlink="http://www.w3.org/1999/xlink"
	x="0px"
	y="0px"
	width="100%"
	viewBox="0 0 360 360"
	enable-background="new 0 0 360 360"
	xml:space="preserve"
>
  <path
    fill="currentColor"
    opacity="1.000000"
    stroke="none"
    d="
M29.464653,361.000000 
	C26.410631,359.559387 23.760836,358.216431 21.243752,356.659027 
	C14.859510,352.708893 11.096204,346.876282 11.073624,339.426971 
	C10.929239,291.792542 10.995569,244.157455 11.004028,196.522598 
	C11.005597,187.686783 19.746157,175.888947 29.479326,176.859268 
	C34.975319,177.407196 40.614357,176.361374 46.185078,176.417725 
	C47.806564,176.434113 49.580826,177.541840 51.000179,178.550278 
	C57.211021,182.963013 62.081619,188.059357 62.058613,196.563995 
	C61.934727,242.366409 62.062351,288.169586 61.882607,333.971649 
	C61.868099,337.668518 64.479034,340.917786 61.647175,345.343414 
	C57.382000,352.009033 53.058517,357.685181 45.001781,359.505646 
	C44.382317,359.645630 43.813717,360.010742 43.110733,360.635590 
	C38.643101,361.000000 34.286201,361.000000 29.464653,361.000000 
z"
  />
  <path
    fill="currentColor"
    opacity="1.000000"
    stroke="none"
    d="
M332.535339,1.000000 
	C339.528961,3.083626 345.745026,5.918572 348.918549,12.347153 
	C350.640869,15.836069 351.853760,19.985756 351.871826,23.844059 
	C352.074554,67.162300 352.073517,110.482033 351.965179,153.800949 
	C351.919434,172.095581 336.799286,179.924042 320.950500,177.686829 
	C313.553528,176.642700 308.261780,172.539780 303.842499,167.672241 
	C301.258240,164.825851 300.179596,159.694931 300.156311,155.581955 
	C299.905640,111.264503 300.045990,66.945015 299.966644,22.626289 
	C299.947571,11.972925 310.540527,1.523604 318.875366,1.375867 
	C323.356903,1.000000 327.713806,1.000000 332.535339,1.000000 
z"
  />
  <path
    fill="currentColor"
    opacity="1.000000"
    stroke="none"
    d="
M250.594116,42.746792 
	C263.461761,42.079735 273.253754,44.964211 278.173096,57.754105 
	C278.790863,59.360134 278.965607,61.222855 278.967163,62.966980 
	C279.008423,109.437302 279.000000,155.907669 279.000000,202.378021 
	C279.000000,215.616852 274.394501,222.009232 261.264435,225.134644 
	C250.651138,227.660934 240.094421,226.935089 232.616455,217.793884 
	C229.667328,214.188782 227.276138,208.885666 227.237228,204.333481 
	C226.847031,158.699265 226.830750,113.059357 227.115036,67.423576 
	C227.189224,55.513515 231.840424,47.425922 243.900314,43.652309 
	C245.880615,43.032665 248.099152,43.174446 250.594116,42.746792 
z"
  />
  <path
    fill="currentColor"
    opacity="1.000000"
    stroke="none"
    d="
M106.110329,133.000000 
	C108.422371,133.000000 110.304115,133.276779 112.077484,132.955460 
	C124.354675,130.730942 135.268326,145.660751 135.173096,156.149063 
	C134.766449,200.936081 135.000671,245.728912 134.999603,290.519623 
	C134.999283,303.982056 125.269531,313.565216 111.906708,314.153564 
	C107.041443,314.367767 102.515884,314.562744 97.703552,313.148590 
	C89.127586,310.628418 83.005020,303.408417 83.003349,294.420959 
	C82.995728,253.459930 83.039238,212.498825 82.955101,171.537964 
	C82.943314,165.799927 81.908646,160.050964 82.075554,154.328293 
	C82.438034,141.900604 91.959648,132.360062 106.110329,133.000000 
z"
  />
  <path
    fill="currentColor"
    opacity="1.000000"
    stroke="none"
    d="
M207.000000,199.000000 
	C207.000000,215.983444 206.884872,232.468094 207.058228,248.949722 
	C207.124954,255.292221 203.937195,259.847412 199.648087,263.674438 
	C190.107193,272.187439 178.852814,270.449890 167.884338,267.801025 
	C161.684860,266.303833 155.028839,255.083908 155.021637,247.529114 
	C154.978180,201.908295 154.783218,156.285767 155.133514,110.667603 
	C155.237167,97.170242 164.689240,88.987259 177.620178,88.097115 
	C181.804886,87.809044 186.151764,88.245338 190.278824,89.074814 
	C200.288452,91.086624 206.999649,99.574593 206.999817,109.589203 
	C207.000320,139.226135 207.000000,168.863068 207.000000,199.000000 
z"
  />
</svg>